<svg xmlns="http://www.w3.org/2000/svg" width="114" height="114" viewBox="0 0 114 114"><g transform="translate(0.061 0.097)"><g transform="translate(-0.061 -0.097)" stroke="#fff" stroke-width="3"><circle cx="57" cy="57" r="57" stroke="none"/><circle cx="57" cy="57" r="55.5" fill="none"/></g><path d="M235.3,89.389,201.717,70l-33.58,19.387,0,0v38.778l33.583,19.389h0L235.3,128.168V89.388Zm-2.916,37.094-30.664,17.7V131.8h0l-19.935-11.509V97.269l0,0,10.052,5.8h0l9.88-5.7,9.881,5.7h0v11.411l-9.882,5.7v11.607l19.936-11.507V97.268h0L201.719,85.758,181.785,97.267l-10.729-6.2,30.662-17.7,30.662,17.7,0,0Z" transform="translate(177.079 251.803) rotate(-150)" fill="#fff"/></g></svg>